<?xml version="1.0" standalone="no"?>
<!DOCTYPE svg PUBLIC "-//W3C//DTD SVG 20010904//EN"
 "http://www.w3.org/TR/2001/REC-SVG-20010904/DTD/svg10.dtd">
<svg version="1.0" xmlns="http://www.w3.org/2000/svg"
 width="1080.000000pt" height="1081.000000pt" viewBox="0 0 1080.000000 1081.000000"
 preserveAspectRatio="xMidYMid meet">

<g transform="translate(0.000000,1081.000000) scale(0.100000,-0.100000)"
fill="#000000" stroke="none">
<path d="M7685 7239 c-328 -21 -596 -127 -904 -356 -14 -11 -25 4 -87 120
l-71 132 -402 3 -401 2 0 -2315 0 -2315 580 0 580 0 0 664 0 665 108 -54 c124
-61 251 -106 389 -136 126 -27 427 -37 570 -20 417 52 755 212 1034 490 177
178 288 349 383 590 144 366 169 845 66 1248 -159 615 -618 1073 -1228 1227
-191 49 -413 68 -617 55z m133 -1045 c386 -80 641 -445 593 -851 -40 -337
-252 -584 -571 -664 -72 -18 -103 -21 -220 -16 -144 6 -209 21 -310 71 -146
74 -260 187 -331 331 -62 127 -82 216 -82 375 0 118 3 146 27 225 86 283 289
473 566 530 90 18 236 18 328 -1z"/>
<path d="M1782 6048 l3 -1093 23 -109 c134 -631 563 -1048 1216 -1181 185 -38
396 -51 585 -37 276 21 488 76 706 182 422 204 690 564 787 1053 22 111 22
123 26 1195 l3 1082 -585 0 -585 0 -4 -1017 c-3 -1118 0 -1055 -64 -1190 -30
-65 -111 -155 -170 -190 -104 -61 -274 -84 -403 -53 -133 31 -244 119 -305
242 -66 135 -65 120 -65 1219 l0 989 -585 0 -586 0 3 -1092z"/>
</g>
</svg>
